<svg viewBox="0 0 300 180" fill="currentColor" xmlns="http://www.w3.org/2000/svg">
  <g clip-path="url(#clip0_1112_1089)">
    <path d="M289.841 180H10.159C4.572 180 0 175.659 0 170.351V9.649C0 4.341 4.572 0 10.16 0h279.68C295.428 0 300 4.34 300 9.65v160.7c0 5.308-4.572 9.649-10.159 9.649Z" fill="#010101"/>
    <path d="M85.267 164.988v-10.172c0-3.824-2.307-6.361-6.241-6.391-2.075-.036-4.209.601-5.704 2.874-1.124-1.792-2.887-2.874-5.362-2.874-1.734 0-3.57.469-4.89 2.363v-1.96h-3.26v16.16h3.288v-9.258c0-2.814 1.704-4.299 4.113-4.299 2.344 0 3.665 1.521 3.665 4.263v9.294h3.288v-9.258c0-2.814 1.77-4.299 4.114-4.299 2.409 0 3.7 1.521 3.7 4.257v9.3h3.288Zm52.886-16.16h-5.906v-4.906h-3.289v4.906h-3.431v2.946h3.431v7.635c0 3.758 1.322 5.988 5.501 5.988 1.524 0 3.288-.475 4.412-1.25l-1.017-2.874a6.532 6.532 0 0 1-3.126.908c-1.764 0-2.481-1.083-2.481-2.706v-7.707h5.906v-2.946.006Zm30.114-.403a5.024 5.024 0 0 0-4.418 2.363v-1.96h-3.222v16.16h3.258v-9.09c0-2.675 1.291-4.401 3.599-4.401.717 0 1.459.102 2.212.409l1.082-3.042a7.565 7.565 0 0 0-2.511-.439Zm-45.52 1.684c-1.698-1.113-4.042-1.684-6.624-1.684-4.108 0-6.619 1.924-6.619 5.134 0 2.646 1.836 4.227 5.465 4.738l1.668.24c1.931.265 2.989.944 2.989 1.852 0 1.257-1.435 2.068-3.838 2.068-2.547 0-4.209-.781-5.399-1.695l-1.662 2.537c2.409 1.761 5.291 2.098 7.025 2.098 4.681 0 7.264-2.164 7.264-5.242 0-2.838-1.973-4.293-5.536-4.798l-1.662-.24c-1.525-.205-2.882-.674-2.882-1.756 0-1.184 1.285-1.996 3.222-1.996 2.069 0 4.072.782 5.058 1.383l1.531-2.633v-.006Zm49.215 6.799c0 4.906 3.294 8.489 8.525 8.489 2.439 0 4.066-.541 5.835-1.924l-1.698-2.543a7.142 7.142 0 0 1-4.244 1.455c-2.81-.03-5.022-2.224-5.022-5.471 0-3.246 2.212-5.447 5.022-5.483a7.148 7.148 0 0 1 4.244 1.455l1.698-2.537c-1.763-1.383-3.396-1.924-5.835-1.924-5.231 0-8.525 3.583-8.525 8.483Zm-22.808-8.483c-4.753 0-8.011 3.415-8.011 8.453 0 5.134 3.395 8.519 8.25 8.519 2.445 0 4.681-.607 6.654-2.266l-1.734-2.405a7.748 7.748 0 0 1-4.723 1.695c-2.272 0-4.579-1.286-4.986-4.19h12.119c.041-.45.065-.901.071-1.353-.035-5.044-3.091-8.453-7.64-8.453Zm-.066 3.006c2.409 0 4.036 1.557 4.275 4.088h-8.759c.305-2.362 1.865-4.088 4.484-4.088Zm-43.924 5.477v-8.08H101.9v1.96c-1.118-1.455-2.954-2.363-5.261-2.363-4.544 0-8.012 3.547-8.012 8.483s3.468 8.489 8.012 8.489c2.307 0 4.143-.914 5.261-2.369v1.966h3.264v-8.086Zm-13.14 0c0-3.042 1.936-5.471 5.057-5.471 2.989 0 4.956 2.327 4.956 5.471s-1.973 5.477-4.956 5.477c-3.12 0-5.058-2.435-5.058-5.471v-.006Zm125.255-8.483a5.001 5.001 0 0 0-2.519.59 5.036 5.036 0 0 0-1.893 1.773v-1.96h-3.229v16.16h3.265v-9.09c0-2.675 1.291-4.401 3.599-4.401.717 0 1.459.102 2.212.409l1.076-3.042a7.57 7.57 0 0 0-2.511-.439Zm26.15 14.219c.428-.002.839.165 1.145.465.307.301.484.71.493 1.14a1.618 1.618 0 0 1-.998 1.479 1.66 1.66 0 0 1-2.159-.854 1.55 1.55 0 0 1 0-1.244 1.624 1.624 0 0 1 1.519-.986Zm0 2.855a1.195 1.195 0 0 0 .879-.36 1.228 1.228 0 0 0 .359-.89 1.226 1.226 0 0 0-.359-.884 1.247 1.247 0 0 0-1.375-.265 1.233 1.233 0 0 0-.769 1.157 1.252 1.252 0 0 0 .368.877c.115.113.251.203.401.263.157.068.325.102.496.102Zm.09-2.002c.197 0 .34.042.448.133a.422.422 0 0 1 .155.348c0 .12-.041.223-.125.301a.595.595 0 0 1-.353.15l.49.565h-.382l-.455-.559h-.149v.559h-.317v-1.491h.688v-.006Zm-.371.283v.397h.371a.367.367 0 0 0 .197-.048.169.169 0 0 0 .078-.151c0-.066-.024-.12-.078-.15a.358.358 0 0 0-.197-.048h-.371Zm-38.358-6.872v-8.08h-3.258v1.96c-1.124-1.455-2.954-2.363-5.262-2.363-4.549 0-8.011 3.547-8.011 8.483s3.462 8.489 8.011 8.489c2.308 0 4.144-.914 5.262-2.369v1.966h3.258v-8.086Zm-13.135 0c0-3.042 1.931-5.471 5.052-5.471 2.989 0 4.962 2.327 4.962 5.471s-1.973 5.477-4.962 5.477c-3.121 0-5.052-2.435-5.052-5.471v-.006Zm45.891 0v-14.573h-3.258v8.453c-1.124-1.455-2.954-2.363-5.261-2.363-4.55 0-8.011 3.547-8.011 8.483s3.461 8.489 8.011 8.489c2.307 0 4.137-.914 5.261-2.369v1.966h3.258v-8.086Zm-13.135 0c0-3.042 1.931-5.471 5.058-5.471 2.989 0 4.956 2.327 4.956 5.471s-1.973 5.477-4.962 5.477c-3.121 0-5.052-2.435-5.052-5.471v-.006Z" fill="#fff"/>
    <path d="M118.95 25.828h58.751v95.591H118.95v-95.59Z" fill="#F16122"/>
    <path d="M125.019 73.624c0-19.39 9.117-36.662 23.31-47.796a60.912 60.912 0 0 0-37.713-12.992c-33.707 0-61.028 27.216-61.028 60.788 0 33.577 27.321 60.793 61.028 60.793 14.229 0 27.334-4.857 37.713-12.998-14.193-11.128-23.31-28.4-23.31-47.795Z" fill="#E91D25"/>
    <path d="M241.444 114.95v-4.99h.921v-1.01h-2.35v1.016h.927v4.984h.502Zm4.55 0v-6.012h-.718l-.825 4.131-.831-4.131h-.717v6.012h.508v-4.539l.777 3.908h.526l.778-3.914v4.539h.502v.006Zm1.076-41.326c0 33.577-27.322 60.793-61.029 60.793-14.235 0-27.333-4.857-37.712-12.998 14.193-11.128 23.304-28.4 23.304-47.795 0-19.39-9.111-36.662-23.304-47.796a60.911 60.911 0 0 1 37.712-12.992c33.701 0 61.023 27.216 61.023 60.788h.006Z" fill="#F79E1D"/>
  </g>
  <defs>
    <clipPath id="clip0_1112_1089">
      <path fill="#fff" d="M0 0h300v180H0z"/>
    </clipPath>
  </defs>
</svg>
