<svg viewBox="0 0 300 180" fill="currentColor" xmlns="http://www.w3.org/2000/svg">
  <g clip-path="url(#clip0_1112_1093)">
    <path d="M284 0H16C7.163 0 0 6.877 0 15.36v149.28C0 173.123 7.163 180 16 180h268c8.837 0 16-6.877 16-15.36V15.36C300 6.877 292.837 0 284 0Z" fill="#0E4595"/>
    <path d="m112.83 127.729 12.81-74.808h20.49l-12.822 74.82H112.83v-.012Zm94.506-73.2a53.147 53.147 0 0 0-18.366-3.138c-20.244 0-34.506 10.14-34.626 24.69-.12 10.746 10.176 16.74 17.952 20.322 7.974 3.666 10.656 6.006 10.62 9.282-.054 5.01-6.372 7.302-12.264 7.302-8.196 0-12.558-1.134-19.284-3.924l-2.64-1.188-2.88 16.746c4.788 2.088 13.638 3.9 22.83 3.99 21.54 0 35.52-10.026 35.676-25.56.078-8.508-5.382-14.988-17.202-20.322-7.164-3.462-11.55-5.772-11.502-9.276 0-3.108 3.714-6.438 11.736-6.438a37.976 37.976 0 0 1 15.336 2.868l1.836.864 2.778-16.218Zm52.722-1.608H244.23c-4.908 0-8.58 1.332-10.734 6.198L203.07 127.68h21.516s3.516-9.216 4.314-11.238l26.238.03c.612 2.616 2.49 11.208 2.49 11.208h19.02l-16.596-74.76h.006Zm-25.116 48.3c1.692-4.308 8.16-20.91 8.16-20.91-.12.198 1.68-4.332 2.718-7.14l1.38 6.45 4.746 21.6h-17.004Zm-139.506-48.3-20.064 51.012-2.136-10.368c-3.732-11.952-15.366-24.9-28.38-31.38l18.348 65.43 21.678-.03 32.256-74.664H95.436Z" fill="#fff"/>
    <path d="M56.658 52.92H23.616l-.258 1.553c25.704 6.192 42.708 21.156 49.77 39.138l-7.182-34.38c-1.242-4.74-4.842-6.15-9.288-6.318" fill="#F2AE14"/>
  </g>
  <defs>
    <clipPath id="clip0_1112_1093">
      <path fill="#fff" d="M0 0h300v180H0z"/>
    </clipPath>
  </defs>
</svg>
